<svg xmlns="http://www.w3.org/2000/svg" width="21.779" height="23.785" viewBox="0 0 21.779 23.785">
  <g id="noun-notification-1117323" transform="translate(0 0)">
    <path id="Path_747" data-name="Path 747" d="M156.4,61.7V58.891a8.392,8.392,0,0,0-5.445-7.881v-.545a2.866,2.866,0,0,0-5.731,0v.545a8.392,8.392,0,0,0-5.445,7.881V61.7a3.292,3.292,0,0,0,.716,6.5h4.3a3.3,3.3,0,0,0,6.591,0h4.3a3.292,3.292,0,0,0,.716-6.5Zm-8.884-11.262a.573.573,0,0,1,1.146,0v.057c-.2,0-.373-.029-.573-.029a3.848,3.848,0,0,0-.573.029Zm.573,2.35a6.073,6.073,0,0,1,6.018,6.1v2.751H142.074V58.891a6.055,6.055,0,0,1,6.018-6.1Zm0,16.335a1.02,1.02,0,0,1-1-.888h1.977A.971.971,0,0,1,148.092,69.122Zm7.594-3.21H140.5a1,1,0,1,1,0-2.006h15.188a1,1,0,1,1,0,2.006Z" transform="translate(-137.202 -47.6)" fill="#fff"/>
  </g>
</svg>
